# xmcd
#
# Track frame offsets:
# 150
# 17408
# 36847
# 51942
# 68076
# 81943
# 97338
# 115137
# 132446
# 147761
# 166214
# 183421
# 194882
# 214777
# 242885
# 263658
# 284919
#
# Disc length: 4137 seconds
#
#
# Revision: 0
# Processed by: cddbd v1.5PL3 Copyright (c) Steve Scherf et al.
# Submitted via: FreeRIP 2.53 
#
DISCID=08102711
DTITLE=Carpenter, Mary Chapin - Party Doll And Other Favorites
DYEAR=1900
DGENRE=
TTITLE0=Can't Take Love For Granted
TTITLE1=Wherever You Are
TTITLE2=Down At The Twist and Shout
TTITLE3=I Feel Lucky
TTITLE4=Dreamland
TTITLE5=Passionate Kisses
TTITLE6=Quittin Time
TTITLE7=This Shirt
TTITLE8=Grow Old Along With Me
TTITLE9=He Thinks He'll Keep Her
TTITLE10=I Take My Chances
TTITLE11=Shut Up And Kiss Me
TTITLE12=The Hard Way
TTITLE13=10,000 Miles
TTITLE14=Stones In The Road (Live In London)
TTITLE15=Almost Home
TTITLE16=Party Doll
EXTD=
EXTT0=
EXTT1=
EXTT2=
EXTT3=
EXTT4=
EXTT5=
EXTT6=
EXTT7=
EXTT8=
EXTT9=
EXTT10=
EXTT11=
EXTT12=
EXTT13=
EXTT14=
EXTT15=
EXTT16=
PLAYORDER=
